<svg width="173" height="142" viewBox="0 0 173 142" fill="none" xmlns="http://www.w3.org/2000/svg">
<circle cx="89" cy="76" r="66" fill="#F0F5FF"/>
<circle cx="89" cy="76" r="50" fill="#E0EBFF"/>
<path d="M89 67.875C88.75 67.875 88.525 67.825 88.275 67.725C87.575 67.45 87.125 66.75 87.125 66V51C87.125 49.975 87.975 49.125 89 49.125C90.025 49.125 90.875 49.975 90.875 51V61.475L92.675 59.675C93.4 58.95 94.6 58.95 95.325 59.675C96.05 60.4 96.05 61.6 95.325 62.325L90.325 67.325C89.975 67.675 89.475 67.875 89 67.875Z" fill="#3366FF"/>
<path d="M89 67.8751C88.525 67.8751 88.05 67.7001 87.675 67.3251L82.675 62.3251C81.95 61.6001 81.95 60.4001 82.675 59.6751C83.4 58.9501 84.6 58.9501 85.325 59.6751L90.325 64.6751C91.05 65.4001 91.05 66.6001 90.325 67.3251C89.95 67.7001 89.475 67.8751 89 67.8751Z" fill="#3366FF"/>
<path d="M99 102.875H79C64.625 102.875 64.625 95.25 64.625 88.5V86C64.625 80.425 64.625 74.125 76.5 74.125C79.475 74.125 80.575 74.85 82.125 76C82.2 76.075 82.3 76.125 82.375 76.225L84.925 78.925C87.075 81.2 90.975 81.2 93.125 78.925L95.675 76.225C95.75 76.15 95.825 76.075 95.925 76C97.475 74.825 98.575 74.125 101.55 74.125C113.425 74.125 113.425 80.425 113.425 86V88.5C113.375 98.05 108.55 102.875 99 102.875ZM76.5 77.875C68.375 77.875 68.375 80.425 68.375 86V88.5C68.375 95.35 68.375 99.125 79 99.125H99C106.45 99.125 109.625 95.95 109.625 88.5V86C109.625 80.425 109.625 77.875 101.5 77.875C99.7 77.875 99.325 78.1 98.25 78.9L95.825 81.475C94.025 83.375 91.6 84.425 89 84.425C86.4 84.425 83.975 83.375 82.175 81.475L79.75 78.9C78.675 78.1 78.3 77.875 76.5 77.875Z" fill="#3366FF"/>
<path d="M71.5 77.8749C70.475 77.8749 69.625 77.0249 69.625 75.9999V65.9999C69.625 61.1499 69.625 55.1249 78.825 54.2499C79.85 54.1499 80.775 54.8999 80.875 55.9499C80.975 56.9749 80.225 57.8999 79.175 57.9999C73.375 58.5249 73.375 60.8749 73.375 65.9999V75.9999C73.375 77.0249 72.525 77.8749 71.5 77.8749Z" fill="#091A7A"/>
<path d="M106.5 77.8751C105.475 77.8751 104.625 77.0251 104.625 76.0001V66.0001C104.625 60.8751 104.625 58.5251 98.8251 57.9751C97.8001 57.8751 97.0501 56.9501 97.1501 55.9251C97.2501 54.9001 98.1501 54.1251 99.2001 54.2501C108.4 55.1251 108.4 61.1501 108.4 66.0001V76.0001C108.375 77.0251 107.525 77.8751 106.5 77.8751Z" fill="#091A7A"/>
<circle cx="164" cy="114" r="9" fill="#D6E4FF"/>
<circle cx="7" cy="70" r="7" fill="#D6E4FF"/>
<circle cx="141" cy="5" r="5" fill="#D6E4FF"/>
</svg>
