<svg width="81" height="19" viewBox="0 0 81 19" fill="none" xmlns="http://www.w3.org/2000/svg">
<path d="M0.242188 11.6797C0.242188 13.8359 1.75 15.2344 4.05469 15.2344C6.46875 15.2344 7.90625 13.8672 7.90625 11.4688V3.72656H5.54688V11.4531C5.54688 12.5859 5.01562 13.1953 4.03125 13.1953C3.14062 13.1953 2.54688 12.5938 2.53125 11.6797H0.242188ZM30.7547 15C33.1609 15 34.6531 13.7578 34.6531 11.7734C34.6531 10.2812 33.5281 9.16406 31.9969 9.04688V8.98438C33.1922 8.80469 34.1141 7.77344 34.1141 6.53906C34.1141 4.8125 32.7859 3.72656 30.6688 3.72656H25.7625V15H30.7547ZM28.1219 5.48438H30.0594C31.1609 5.48438 31.7938 6 31.7938 6.90625C31.7938 7.85938 31.075 8.41406 29.8172 8.41406H28.1219V5.48438ZM28.1219 13.2422V9.96875H30.0984C31.4891 9.96875 32.2469 10.5312 32.2469 11.5859C32.2469 12.6641 31.5125 13.2422 30.1531 13.2422H28.1219ZM36.215 11.7891C36.2853 13.9062 38.0119 15.1953 40.7228 15.1953C43.5197 15.1953 45.2931 13.8125 45.2931 11.625C45.2931 9.90625 44.3088 8.9375 42.0509 8.45312L40.6838 8.16406C39.3869 7.86719 38.84 7.47656 38.84 6.78125C38.84 5.94531 39.6213 5.39062 40.7853 5.39062C41.965 5.39062 42.8009 5.96875 42.8791 6.92188H45.09C45.0509 4.88281 43.4025 3.53125 40.7775 3.53125C38.2619 3.53125 36.465 4.90625 36.465 6.98438C36.465 8.63281 37.4884 9.6875 39.5666 10.1328L41.0353 10.4531C42.3947 10.7578 42.9338 11.1641 42.9338 11.8984C42.9338 12.7266 42.0744 13.3281 40.8166 13.3281C39.5666 13.3281 38.5978 12.7188 38.4884 11.7891H36.215ZM52.4722 15.1953C53.1831 15.1953 53.8394 15.0938 54.4409 14.8828L55.2456 16.0625H57.5347L56.105 13.9062C57.2691 12.9453 57.9019 11.3516 57.9019 9.36719C57.9019 5.78125 55.8081 3.53125 52.4722 3.53125C49.1284 3.53125 47.0347 5.78125 47.0347 9.36719C47.0347 12.9844 49.1284 15.1953 52.4722 15.1953ZM52.4722 13.2422C50.6206 13.2422 49.4409 11.7266 49.4409 9.36719C49.4409 7 50.6206 5.47656 52.4722 5.47656C54.3159 5.47656 55.4956 7 55.4956 9.36719C55.4956 10.4531 55.1987 11.3516 54.6675 11.9609L54.1753 11.2891H52.0425L53.2769 13.1328C53.0269 13.2031 52.7612 13.2422 52.4722 13.2422ZM62.4325 3.72656H60.0731V11.0156C60.0731 13.5 61.9091 15.1953 64.7997 15.1953C67.6825 15.1953 69.5184 13.5 69.5184 11.0156V3.72656H67.1591V10.7812C67.1591 12.2266 66.3075 13.1719 64.7997 13.1719C63.2841 13.1719 62.4325 12.2266 62.4325 10.7812V3.72656ZM79.51 13.0469H74.4006V10.2031H79.2209V8.39062H74.4006V5.67188H79.51V3.72656H72.0413V15H79.51V13.0469Z" fill="#111827"/>
<path d="M21.6667 8.41663C21.6667 11.3158 19.3159 13.6666 16.4167 13.6666C13.5175 13.6666 11.1667 11.3158 11.1667 8.41663C11.1667 5.51746 13.5175 3.16663 16.4167 3.16663" stroke="#3366FF" stroke-linecap="round" stroke-linejoin="round"/>
<path d="M21.0425 14.069C21.3516 15.0023 22.0575 15.0957 22.6 14.279C23.0958 13.5323 22.7691 12.9198 21.8708 12.9198C21.2058 12.914 20.8325 13.4332 21.0425 14.069Z" stroke="#3366FF" stroke-linecap="round" stroke-linejoin="round"/>
<path d="M18.1667 4.91663H21.6667" stroke="#3366FF" stroke-linecap="round" stroke-linejoin="round"/>
<path d="M18.1667 6.66663H19.9167" stroke="#3366FF" stroke-linecap="round" stroke-linejoin="round"/>
</svg>
