<svg width="173" height="142" viewBox="0 0 173 142" fill="none" xmlns="http://www.w3.org/2000/svg">
<circle cx="89" cy="76" r="66" fill="#F0F5FF"/>
<circle cx="89" cy="76" r="50" fill="#E0EBFF"/>
<path d="M89 102.9C86.275 102.9 83.575 102.1 81.45 100.525L70.7 92.5001C67.85 90.3751 65.625 85.9251 65.625 82.4001V63.8001C65.625 59.9501 68.45 55.8501 72.075 54.5001L84.55 49.8251C87.025 48.9001 90.925 48.9001 93.4 49.8251L105.875 54.5001C109.5 55.8501 112.325 59.9501 112.325 63.8001V82.3751C112.325 85.9251 110.1 90.3501 107.25 92.4751L96.5 100.5C94.425 102.1 91.725 102.9 89 102.9ZM85.875 53.3501L73.4 58.0251C71.275 58.8251 69.4 61.5251 69.4 63.8251V82.4001C69.4 84.7751 71.075 88.1001 72.95 89.5001L83.7 97.5251C86.575 99.6751 91.425 99.6751 94.325 97.5251L105.075 89.5001C106.975 88.0751 108.625 84.7751 108.625 82.4001V63.8001C108.625 61.5251 106.75 58.8251 104.625 58.0001L92.15 53.3251C90.45 52.7251 87.55 52.7251 85.875 53.3501Z" fill="#3366FF"/>
<path d="M85.6501 81.5751C85.1751 81.5751 84.7001 81.4001 84.3251 81.0251L80.3001 77C79.5751 76.275 79.5751 75.0751 80.3001 74.3501C81.0251 73.6251 82.2251 73.6251 82.9501 74.3501L85.6501 77.0501L95.0751 67.625C95.8001 66.9 97.0001 66.9 97.7251 67.625C98.4501 68.35 98.4501 69.5501 97.7251 70.2751L86.9751 81.0251C86.6001 81.4001 86.1251 81.5751 85.6501 81.5751Z" fill="#091A7A"/>
<circle cx="164" cy="114" r="9" fill="#D6E4FF"/>
<circle cx="7" cy="70" r="7" fill="#D6E4FF"/>
<circle cx="141" cy="5" r="5" fill="#D6E4FF"/>
</svg>
