<svg width="173" height="142" viewBox="0 0 173 142" fill="none" xmlns="http://www.w3.org/2000/svg">
<circle cx="89" cy="76" r="66" fill="#F0F5FF"/>
<circle cx="89" cy="76" r="50" fill="#E0EBFF"/>
<path d="M89.0004 102.875C87.3254 102.875 85.6254 102.45 84.1254 101.575L69.2754 92.9999C66.2754 91.2499 64.4004 88.0249 64.4004 84.5499V67.45C64.4004 63.975 66.2754 60.75 69.2754 59L84.1254 50.425C87.1254 48.675 90.8504 48.675 93.8754 50.425L108.725 59C111.725 60.75 113.6 63.975 113.6 67.45V84.5499C113.6 88.0249 111.725 91.2499 108.725 92.9999L93.8754 101.575C92.3754 102.45 90.6754 102.875 89.0004 102.875ZM89.0004 52.8749C87.9754 52.8749 86.9254 53.15 86.0004 53.675L71.1504 62.2499C69.3004 63.3249 68.1504 65.3 68.1504 67.45V84.5499C68.1504 86.6749 69.3004 88.6749 71.1504 89.7499L86.0004 98.3249C87.8504 99.3999 90.1504 99.3999 92.0004 98.3249L106.85 89.7499C108.7 88.6749 109.85 86.6999 109.85 84.5499V67.45C109.85 65.325 108.7 63.3249 106.85 62.2499L92.0004 53.675C91.0754 53.15 90.0254 52.8749 89.0004 52.8749Z" fill="#3366FF"/>
<path d="M88.9998 75.3752C84.7498 75.3752 81.2998 71.9251 81.2998 67.6751C81.2998 63.4251 84.7498 59.9752 88.9998 59.9752C93.2498 59.9752 96.6998 63.4251 96.6998 67.6751C96.6998 71.9251 93.2498 75.3752 88.9998 75.3752ZM88.9998 63.7252C86.8248 63.7252 85.0498 65.5001 85.0498 67.6751C85.0498 69.8501 86.8248 71.6252 88.9998 71.6252C91.1748 71.6252 92.9498 69.8501 92.9498 67.6751C92.9498 65.5001 91.1748 63.7252 88.9998 63.7252Z" fill="#091A7A"/>
<path d="M99 89.5252C97.975 89.5252 97.125 88.6752 97.125 87.6502C97.125 84.2002 93.475 81.3754 89 81.3754C84.525 81.3754 80.875 84.2002 80.875 87.6502C80.875 88.6752 80.025 89.5252 79 89.5252C77.975 89.5252 77.125 88.6752 77.125 87.6502C77.125 82.1252 82.45 77.6254 89 77.6254C95.55 77.6254 100.875 82.1252 100.875 87.6502C100.875 88.6752 100.025 89.5252 99 89.5252Z" fill="#091A7A"/>
<circle cx="164" cy="114" r="9" fill="#D6E4FF"/>
<circle cx="7" cy="70" r="7" fill="#D6E4FF"/>
<circle cx="141" cy="5" r="5" fill="#D6E4FF"/>
</svg>
