<svg width="18" height="13" viewBox="0 0 18 13" fill="none" xmlns="http://www.w3.org/2000/svg">
<g id="camera">
<path d="M1.26667 0.5C0.567106 0.5 0 1.13959 0 1.92857V8.85714C0 10.869 1.44612 12.5 3.23 12.5L10.7333 12.4286C11.4329 12.4286 12 11.789 12 11V4.00002C12 1.98813 10.2839 0.500025 8.5 0.500025L1.26667 0.5Z" fill="white"/>
<path d="M13.7122 3.2276C13.2596 3.67516 13 4.32111 13 5.00002V7.8993C13 8.57821 13.2596 9.22416 13.7122 9.67173L16.5288 12.1525C17.1019 12.7191 18 12.2601 18 11.4005V1.63516C18 0.775546 17.1019 0.316535 16.5288 0.883223L13.7122 3.2276Z" fill="white"/>
</g>
</svg>
