<svg width="173" height="142" viewBox="0 0 173 142" fill="none" xmlns="http://www.w3.org/2000/svg">
<circle cx="89" cy="76" r="66" fill="#F0F5FF"/>
<circle cx="89" cy="76" r="50" fill="#E0EBFF"/>
<path d="M94.0002 88.2751C93.5252 88.2751 93.0502 88.1001 92.6752 87.7251L82.7752 77.8251C82.0502 77.1001 82.0502 75.9001 82.7752 75.1751C83.5002 74.4501 84.7002 74.4501 85.4252 75.1751L95.3252 85.0751C96.0502 85.8001 96.0502 87.0001 95.3252 87.7251C94.9502 88.0751 94.4752 88.2751 94.0002 88.2751Z" fill="#3366FF"/>
<path d="M83.9996 88.375C83.5246 88.375 83.0496 88.2 82.6746 87.825C81.9496 87.1 81.9496 85.9 82.6746 85.175L92.5746 75.275C93.2996 74.55 94.4996 74.55 95.2246 75.275C95.9496 76 95.9496 77.2 95.2246 77.925L85.3246 87.825C84.9496 88.2 84.4746 88.375 83.9996 88.375Z" fill="#091A7A"/>
<path d="M94 62.875H84C81.6 62.875 77.125 62.875 77.125 56C77.125 49.125 81.6 49.125 84 49.125H94C96.4 49.125 100.875 49.125 100.875 56C100.875 58.4 100.875 62.875 94 62.875ZM84 52.875C81.525 52.875 80.875 52.875 80.875 56C80.875 59.125 81.525 59.125 84 59.125H94C97.125 59.125 97.125 58.475 97.125 56C97.125 52.875 96.475 52.875 94 52.875H84Z" fill="#3366FF"/>
<path d="M96.5 102.875H81.5C67.45 102.875 64.625 96.4251 64.625 86.0001V71.0001C64.625 59.6001 68.75 54.7251 78.9 54.2001C79.95 54.1501 80.825 54.9251 80.875 55.9751C80.925 57.0251 80.125 57.8751 79.1 57.9251C72 58.3251 68.375 60.4501 68.375 71.0001V86.0001C68.375 95.2501 70.2 99.1251 81.5 99.1251H96.5C107.8 99.1251 109.625 95.2501 109.625 86.0001V71.0001C109.625 60.4501 106 58.3251 98.9 57.9251C97.875 57.8751 97.075 56.9751 97.125 55.9501C97.175 54.9251 98.075 54.1251 99.1 54.1751C109.25 54.7251 113.375 59.6001 113.375 70.9751V85.9751C113.375 96.4251 110.55 102.875 96.5 102.875Z" fill="#292D32"/>
<circle cx="164" cy="114" r="9" fill="#D6E4FF"/>
<circle cx="7" cy="70" r="7" fill="#D6E4FF"/>
<circle cx="141" cy="5" r="5" fill="#D6E4FF"/>
</svg>
