<svg width="173" height="142" viewBox="0 0 173 142" fill="none" xmlns="http://www.w3.org/2000/svg">
<circle cx="89" cy="76" r="66" fill="#F0F5FF"/>
<circle cx="89" cy="76" r="50" fill="#E0EBFF"/>
<path d="M86.025 88.3751C85.55 88.3751 85.075 88.2001 84.7 87.8251L80.95 84.0751C80.225 83.3501 80.225 82.1501 80.95 81.4251C81.675 80.7001 82.875 80.7001 83.6 81.4251L86.025 83.8501L94.7 75.1751C95.425 74.4501 96.625 74.4501 97.35 75.1751C98.075 75.9001 98.075 77.1001 97.35 77.8251L87.35 87.8251C87 88.2001 86.5 88.3751 86.025 88.3751Z" fill="#3366FF"/>
<path d="M94 62.875H84C81.6 62.875 77.125 62.875 77.125 56C77.125 49.125 81.6 49.125 84 49.125H94C96.4 49.125 100.875 49.125 100.875 56C100.875 58.4 100.875 62.875 94 62.875ZM84 52.875C81.525 52.875 80.875 52.875 80.875 56C80.875 59.125 81.525 59.125 84 59.125H94C97.125 59.125 97.125 58.475 97.125 56C97.125 52.875 96.475 52.875 94 52.875H84Z" fill="#091A7A"/>
<path d="M96.5 102.875H81.5C67.45 102.875 64.625 96.4251 64.625 86.0001V71.0001C64.625 59.6001 68.75 54.7251 78.9 54.2001C79.925 54.1501 80.825 54.9251 80.875 55.9751C80.925 57.0251 80.125 57.8751 79.1 57.9251C72 58.3251 68.375 60.4501 68.375 71.0001V86.0001C68.375 95.2501 70.2 99.1251 81.5 99.1251H96.5C107.8 99.1251 109.625 95.2501 109.625 86.0001V71.0001C109.625 60.4501 106 58.3251 98.9 57.9251C97.875 57.8751 97.075 56.9751 97.125 55.9501C97.175 54.9251 98.05 54.1251 99.1 54.1751C109.25 54.7251 113.375 59.6001 113.375 70.9751V85.9751C113.375 96.4251 110.55 102.875 96.5 102.875Z" fill="#3366FF"/>
<circle cx="164" cy="114" r="9" fill="#D6E4FF"/>
<circle cx="7" cy="70" r="7" fill="#D6E4FF"/>
<circle cx="141" cy="5" r="5" fill="#D6E4FF"/>
</svg>
