<svg width="173" height="142" viewBox="0 0 173 142" fill="none" xmlns="http://www.w3.org/2000/svg">
<circle cx="89" cy="76" r="66" fill="#F0F5FF"/>
<circle cx="89" cy="76" r="50" fill="#E0EBFF"/>
<path d="M98.9994 101.8C98.1494 101.8 97.3244 101.55 96.5994 101.075L85.9494 93.9746H81.2244C80.6494 93.9746 80.0994 93.6997 79.7494 93.2497C79.3994 92.7747 79.2744 92.1746 79.4244 91.6246C79.5744 91.0246 79.6494 90.4246 79.6494 89.7746C79.6494 87.7746 78.8994 85.8497 77.5494 84.3497C76.0244 82.6247 73.8494 81.6496 71.5244 81.6496C69.2994 81.6496 67.2244 82.5246 65.6994 84.0996C65.2244 84.5996 64.4994 84.7996 63.8494 84.5996C63.1994 84.3996 62.6744 83.8746 62.5244 83.1996C62.2744 82.0996 62.1494 80.8996 62.1494 79.5996V64.5996C62.1494 55.9996 67.9244 50.2246 76.5244 50.2246H101.524C110.124 50.2246 115.899 55.9996 115.899 64.5996V79.5996C115.899 83.7746 114.524 87.3745 111.899 89.9995C109.699 92.1995 106.774 93.5247 103.399 93.8747V97.4246C103.399 99.0496 102.499 100.525 101.074 101.3C100.399 101.625 99.6994 101.8 98.9994 101.8ZM83.3744 90.1996H86.4994C86.8744 90.1996 87.2244 90.2996 87.5494 90.5246L98.6744 97.9497C98.9244 98.1247 99.1744 98.0495 99.2994 97.9745C99.4244 97.8995 99.6494 97.7496 99.6494 97.3996V92.0746C99.6494 91.0496 100.499 90.1996 101.524 90.1996C104.699 90.1996 107.374 89.1997 109.249 87.3247C111.149 85.4247 112.149 82.7496 112.149 79.5746V64.5746C112.149 58.1246 107.974 53.9496 101.524 53.9496H76.5244C70.0744 53.9496 65.8994 58.1246 65.8994 64.5746V79.2746C67.5994 78.3496 69.5244 77.8746 71.5244 77.8746C74.9244 77.8746 78.1494 79.3246 80.3494 81.8246C82.2994 83.9996 83.3994 86.8246 83.3994 89.7496C83.3744 89.8996 83.3744 90.0496 83.3744 90.1996Z" fill="#3366FF"/>
<path d="M71.5 101.625C68.55 101.625 65.75 100.525 63.575 98.55C62.7 97.8 61.925 96.875 61.325 95.85C60.225 94.05 59.625 91.925 59.625 89.75C59.625 86.625 60.825 83.7 62.975 81.475C65.225 79.15 68.25 77.875 71.5 77.875C74.9 77.875 78.125 79.325 80.325 81.825C82.275 84 83.375 86.825 83.375 89.75C83.375 90.7 83.25 91.65 83 92.55C82.75 93.675 82.275 94.85 81.625 95.875C79.55 99.425 75.65 101.625 71.5 101.625ZM71.5 81.625C69.275 81.625 67.2 82.5 65.675 84.075C64.2 85.6 63.375 87.6 63.375 89.75C63.375 91.225 63.775 92.675 64.55 93.925C64.95 94.625 65.475 95.2499 66.075 95.7749C67.575 97.1499 69.5 97.9 71.5 97.9C74.375 97.9 76.975 96.425 78.45 93.975C78.9 93.275 79.2 92.5001 79.375 91.7001C79.55 91.0501 79.625 90.425 79.625 89.775C79.625 87.775 78.875 85.8501 77.525 84.3501C76.025 82.6001 73.825 81.625 71.5 81.625Z" fill="#091A7A"/>
<path d="M74.175 94.2247C73.7 94.2247 73.225 94.0498 72.85 93.6748L67.575 88.3998C66.85 87.6748 66.85 86.4748 67.575 85.7498C68.3 85.0248 69.5 85.0248 70.225 85.7498L75.5 91.0248C76.225 91.7498 76.225 92.9498 75.5 93.6748C75.125 94.0498 74.65 94.2247 74.175 94.2247Z" fill="#3366FF"/>
<path d="M68.8253 94.3C68.3503 94.3 67.8753 94.125 67.5003 93.75C66.7753 93.025 66.7753 91.825 67.5003 91.1L72.7753 85.825C73.5003 85.1 74.7003 85.1 75.4253 85.825C76.1503 86.55 76.1503 87.75 75.4253 88.475L70.1503 93.75C69.7753 94.125 69.3003 94.3 68.8253 94.3Z" fill="#292D32"/>
<path d="M97.75 74.125H80.25C79.225 74.125 78.375 73.275 78.375 72.25C78.375 71.225 79.225 70.375 80.25 70.375H97.75C98.775 70.375 99.625 71.225 99.625 72.25C99.625 73.275 98.775 74.125 97.75 74.125Z" fill="#292D32"/>
<circle cx="164" cy="114" r="9" fill="#D6E4FF"/>
<circle cx="7" cy="70" r="7" fill="#D6E4FF"/>
<circle cx="141" cy="5" r="5" fill="#D6E4FF"/>
</svg>
