<svg width="173" height="142" viewBox="0 0 173 142" fill="none" xmlns="http://www.w3.org/2000/svg">
<circle cx="89" cy="76" r="66" fill="#F0F5FF"/>
<circle cx="89" cy="76" r="50" fill="#E0EBFF"/>
<path d="M89 72.3001C87.975 72.3001 87.125 71.4501 87.125 70.4251V62.1001C87.125 61.0751 87.975 60.2251 89 60.2251C90.025 60.2251 90.875 61.0751 90.875 62.1001V70.4251C90.875 71.4751 90.025 72.3001 89 72.3001Z" fill="#3366FF"/>
<path d="M89.0502 96.8751C82.6002 96.8751 76.1752 95.8501 70.0502 93.8001C67.7752 93.0501 66.0502 91.4251 65.3002 89.3751C64.5502 87.3251 64.8002 84.9751 66.0252 82.9251L69.2002 77.6251C69.9002 76.4501 70.5252 74.2501 70.5252 72.8751V67.6251C70.5252 57.4001 78.8252 49.1001 89.0502 49.1001C99.2752 49.1001 107.575 57.4001 107.575 67.6251V72.8751C107.575 74.2251 108.2 76.4501 108.9 77.6251L112.075 82.9251C113.25 84.8751 113.45 87.2001 112.675 89.3251C111.9 91.4501 110.2 93.0751 108.05 93.8001C101.925 95.8751 95.5002 96.8751 89.0502 96.8751ZM89.0502 52.8751C80.9002 52.8751 74.2752 59.5001 74.2752 67.6501V72.9001C74.2752 74.9251 73.4752 77.8501 72.4252 79.5751L69.2502 84.9001C68.6002 85.9751 68.4502 87.1251 68.8252 88.1251C69.2002 89.1251 70.0502 89.8751 71.2502 90.2751C82.7502 94.1001 95.4002 94.1001 106.9 90.2751C107.975 89.9251 108.8 89.1251 109.175 88.0751C109.575 87.0251 109.45 85.8751 108.875 84.9001L105.7 79.6001C104.65 77.8751 103.85 74.9501 103.85 72.9251V67.6751C103.825 59.5001 97.2002 52.8751 89.0502 52.8751Z" fill="#091A7A"/>
<path d="M88.9998 103.25C86.3248 103.25 83.6998 102.15 81.7998 100.25C79.8998 98.3501 78.7998 95.725 78.7998 93.05H82.5498C82.5498 94.75 83.2498 96.4 84.4498 97.6C85.6498 98.8 87.2998 99.5 88.9998 99.5C92.5498 99.5 95.4498 96.6 95.4498 93.05H99.1998C99.1998 98.675 94.6248 103.25 88.9998 103.25Z" fill="#3366FF"/>
<circle cx="164" cy="114" r="9" fill="#D6E4FF"/>
<circle cx="7" cy="70" r="7" fill="#D6E4FF"/>
<circle cx="141" cy="5" r="5" fill="#D6E4FF"/>
</svg>
