<svg width="173" height="142" viewBox="0 0 173 142" fill="none" xmlns="http://www.w3.org/2000/svg">
<circle cx="89" cy="76" r="66" fill="#F0F5FF"/>
<circle cx="89" cy="76" r="50" fill="#E0EBFF"/>
<path d="M97.275 83.55C95.825 83.55 94.25 83.075 92.675 82.1L89.375 80.1C89.225 80 88.775 80 88.625 80.1L85.325 82.1C82.625 83.75 79.975 84 77.85 82.8C75.775 81.625 74.625 79.275 74.625 76.2V58.575C74.625 52.475 77.95 49.125 84 49.125H94C100.05 49.125 103.375 52.475 103.375 58.575V76.2C103.375 79.3 102.225 81.65 100.15 82.8C99.275 83.3 98.3 83.55 97.275 83.55ZM89 76.275C89.825 76.275 90.65 76.475 91.325 76.875L94.625 78.875C96.1 79.775 97.45 80 98.3 79.525C99.125 79.05 99.6 77.825 99.6 76.175V58.575C99.6 54.575 97.925 52.875 93.975 52.875H83.975C80.025 52.875 78.35 54.575 78.35 58.575V76.2C78.35 77.85 78.825 79.075 79.65 79.55C80.5 80.025 81.85 79.8 83.325 78.9L86.625 76.9C87.35 76.475 88.175 76.275 89 76.275Z" fill="#3366FF"/>
<path d="M96.5 102.875H81.5C67.925 102.875 62.125 97.025 62.125 83.325V75.75C62.125 64.1 66.325 58.2 75.725 56.625C76.725 56.45 77.7 57.15 77.875 58.175C78.05 59.2 77.35 60.15 76.325 60.325C68.8 61.575 65.85 65.9 65.85 75.75V83.325C65.85 94.85 70.075 99.125 81.475 99.125H96.475C107.875 99.125 112.1 94.85 112.1 83.325V75.75C112.1 65.75 109.05 61.425 101.2 60.25C100.175 60.1 99.475 59.15 99.625 58.125C99.775 57.1 100.725 56.4 101.75 56.55C111.5 58 115.85 63.9 115.85 75.75V83.325C115.875 97.025 110.075 102.875 96.5 102.875Z" fill="#091A7A"/>
<circle cx="164" cy="114" r="9" fill="#D6E4FF"/>
<circle cx="7" cy="70" r="7" fill="#D6E4FF"/>
<circle cx="141" cy="5" r="5" fill="#D6E4FF"/>
</svg>
