<svg width="173" height="142" viewBox="0 0 173 142" fill="none" xmlns="http://www.w3.org/2000/svg">
<circle cx="89" cy="76" r="66" fill="#F0F5FF"/>
<circle cx="89" cy="76" r="50" fill="#E0EBFF"/>
<path d="M86.5 97.875C73.05 97.875 62.125 86.95 62.125 73.5C62.125 60.05 73.05 49.125 86.5 49.125C99.95 49.125 110.875 60.05 110.875 73.5C110.875 86.95 99.95 97.875 86.5 97.875ZM86.5 52.875C75.125 52.875 65.875 62.125 65.875 73.5C65.875 84.875 75.125 94.125 86.5 94.125C97.875 94.125 107.125 84.875 107.125 73.5C107.125 62.125 97.875 52.875 86.5 52.875Z" fill="#3366FF"/>
<path d="M92.75 75.375H80.25C79.225 75.375 78.375 74.525 78.375 73.5C78.375 72.475 79.225 71.625 80.25 71.625H92.75C93.775 71.625 94.625 72.475 94.625 73.5C94.625 74.525 93.775 75.375 92.75 75.375Z" fill="#091A7A"/>
<path d="M109.4 102.975C109.2 102.975 109 102.95 108.825 102.925C107.65 102.775 105.525 101.975 104.325 98.4C103.7 96.525 103.925 94.65 104.95 93.225C105.975 91.8 107.7 91 109.675 91C112.225 91 114.225 91.975 115.125 93.7C116.025 95.425 115.775 97.625 114.35 99.75C112.575 102.425 110.65 102.975 109.4 102.975ZM107.9 97.225C108.325 98.525 108.925 99.175 109.325 99.225C109.725 99.275 110.475 98.8 111.25 97.675C111.975 96.6 112.025 95.825 111.85 95.475C111.675 95.125 110.975 94.75 109.675 94.75C108.9 94.75 108.325 95 108 95.425C107.7 95.85 107.65 96.5 107.9 97.225Z" fill="#3366FF"/>
<circle cx="164" cy="114" r="9" fill="#D6E4FF"/>
<circle cx="7" cy="70" r="7" fill="#D6E4FF"/>
<circle cx="141" cy="5" r="5" fill="#D6E4FF"/>
</svg>
